<mxfile host="app.diagrams.net" agent="Mozilla/5.0 (Windows NT 10.0; Win64; x64; rv:133.0) Gecko/20100101 Firefox/133.0" version="25.0.3">
  <diagram name="Page-1" id="Xo_0OjjunABtG7nuBkaI">
    <mxGraphModel dx="2074" dy="1142" grid="1" gridSize="10" guides="1" tooltips="1" connect="1" arrows="1" fold="1" page="1" pageScale="1" pageWidth="827" pageHeight="1169" math="0" shadow="0">
      <root>
        <mxCell id="0" />
        <mxCell id="1" parent="0" />
        <mxCell id="qAEd4wEDRuRqzJ7ZsBPu-1" value="" style="rounded=1;whiteSpace=wrap;html=1;" vertex="1" parent="1">
          <mxGeometry x="147" y="150" width="680" height="500" as="geometry" />
        </mxCell>
        <mxCell id="qAEd4wEDRuRqzJ7ZsBPu-2" value="Actor" style="shape=umlActor;verticalLabelPosition=bottom;verticalAlign=top;html=1;outlineConnect=0;" vertex="1" parent="1">
          <mxGeometry x="40" y="320" width="40" height="80" as="geometry" />
        </mxCell>
        <mxCell id="qAEd4wEDRuRqzJ7ZsBPu-4" value="User presses the ESC key" style="ellipse;whiteSpace=wrap;html=1;" vertex="1" parent="1">
          <mxGeometry x="161" y="210" width="160" height="100" as="geometry" />
        </mxCell>
        <mxCell id="qAEd4wEDRuRqzJ7ZsBPu-5" value="&lt;div&gt;The main menu opens allowing you to access your collected items and save your game&lt;br&gt;&lt;/div&gt;" style="ellipse;whiteSpace=wrap;html=1;" vertex="1" parent="1">
          <mxGeometry x="500" y="270" width="160" height="100" as="geometry" />
        </mxCell>
        <mxCell id="qAEd4wEDRuRqzJ7ZsBPu-6" value="" style="endArrow=classic;html=1;rounded=0;entryX=0;entryY=0.5;entryDx=0;entryDy=0;" edge="1" parent="1" target="qAEd4wEDRuRqzJ7ZsBPu-4">
          <mxGeometry width="50" height="50" relative="1" as="geometry">
            <mxPoint x="80" y="360" as="sourcePoint" />
            <mxPoint x="130" y="310" as="targetPoint" />
          </mxGeometry>
        </mxCell>
        <mxCell id="qAEd4wEDRuRqzJ7ZsBPu-7" value="" style="endArrow=classic;html=1;rounded=0;entryX=0;entryY=0.5;entryDx=0;entryDy=0;exitX=1;exitY=0.5;exitDx=0;exitDy=0;" edge="1" parent="1" source="qAEd4wEDRuRqzJ7ZsBPu-4" target="qAEd4wEDRuRqzJ7ZsBPu-5">
          <mxGeometry width="50" height="50" relative="1" as="geometry">
            <mxPoint x="317" y="310" as="sourcePoint" />
            <mxPoint x="367" y="260" as="targetPoint" />
          </mxGeometry>
        </mxCell>
      </root>
    </mxGraphModel>
  </diagram>
</mxfile>
